# xmcd
#
# Track frame offsets:
#	150
#	16216
#	28439
#	41805
#	56633
#	66905
#	85755
#	97862
#	116866
#	131338
#	146618
#	158953
#	173865
#	185341
#	203312
#	223034
#	240129
#	255112
#	268490
#	284499
#
# Disc length: 3999 seconds
#
# Revision: 4
# Processed by: cddbd v1.5.2PL0 Copyright (c) Steve Scherf et al.
# Submitted via: audiograbber 1.83.01
#
DISCID=1d0f9d14
DTITLE=Various Artist - The Heart Of Country [CD1]
DYEAR=1900
DGENRE=Country
TTITLE0=Shania Twain - You're Still The One
TTITLE1=Charlie Rich - The Most Beautiful Girl In The World
TTITLE2=Dolly Parton - Here You Come Again
TTITLE3=Bob Dylan - Lay Lady Lay
TTITLE4=Kris Kristofferson - Help Me Make It Through The Night
TTITLE5=Juice Newton - Angel Of The Morning
TTITLE6=Glen Campbell - By The Time I Get To Phoenix
TTITLE7=Nanci Griffith - From A Distance
TTITLE8=Bellamy Brothers - Let Your Love Flow
TTITLE9=Jeannie C. Riley - Harper Valley PTA
TTITLE10=McAlmont and Butler - Jackson
TTITLE11=George Jones - He Stopped Loving Her Today
TTITLE12=Willie Nelson - On The Road Again
TTITLE13=Billy Swan - I Can Help
TTITLE14=The Mavericks - Dance The Night Away
TTITLE15=Highwayman - Deportee (Plane Wreck At Los Gatos)
TTITLE16=Mary Chapin Carpenter - Passionate Kisses
TTITLE17=Tammy Wynette - D-I-V-O-R-C-E
TTITLE18=Randy Travis - Forever and Ever Amen
TTITLE19=Martina McBride - Independence Day
EXTD=
EXTT0=
EXTT1=
EXTT2=
EXTT3=
EXTT4=
EXTT5=
EXTT6=
EXTT7=
EXTT8=
EXTT9=
EXTT10=
EXTT11=
EXTT12=
EXTT13=
EXTT14=
EXTT15=
EXTT16=
EXTT17=
EXTT18=
EXTT19=
PLAYORDER=
